<svg xmlns="http://www.w3.org/2000/svg" xmlns:xlink="http://www.w3.org/1999/xlink" width="500" zoomAndPan="magnify" viewBox="0 0 375 374.999991" height="500" preserveAspectRatio="xMidYMid meet" version="1.0"><defs><g/><clipPath id="800efe6bd9"><rect x="0" width="292" y="0" height="172"/></clipPath><clipPath id="59effb36df"><path d="M 155 53 L 353 53 L 353 283 L 155 283 Z M 155 53 " clip-rule="nonzero"/></clipPath><clipPath id="4eec731ca7"><rect x="0" width="353" y="0" height="285"/></clipPath></defs><g transform="matrix(1, 0, 0, 1, 37, 0)"><g clip-path="url(#800efe6bd9)"><g fill="#b1a1ed" fill-opacity="1"><g transform="translate(0.500002, 129.81523)"><g><path d="M 59.078125 -85.71875 C 79.035156 -85.71875 89.015625 -74.242188 89.015625 -51.296875 L 89.015625 0 L 68.34375 0 L 68.34375 -50.296875 C 68.34375 -56.921875 67.070312 -61.75 64.53125 -64.78125 C 62 -67.8125 58.082031 -69.328125 52.78125 -69.328125 C 46.5 -69.328125 41.425781 -67.3125 37.5625 -63.28125 C 33.695312 -59.257812 31.765625 -53.941406 31.765625 -47.328125 L 31.765625 0 L 11.25 0 L 11.25 -121.78125 L 31.765625 -121.78125 L 31.765625 -71.484375 C 34.640625 -76.003906 38.445312 -79.503906 43.1875 -81.984375 C 47.925781 -84.472656 53.222656 -85.71875 59.078125 -85.71875 Z M 59.078125 -85.71875 "/></g></g></g><g fill="#b1a1ed" fill-opacity="1"><g transform="translate(100.277081, 129.81523)"><g><path d="M 56.265625 -85.546875 C 59.460938 -85.546875 62.21875 -85.101562 64.53125 -84.21875 L 64.375 -65.359375 C 60.84375 -66.796875 57.203125 -67.515625 53.453125 -67.515625 C 46.390625 -67.515625 41.007812 -65.472656 37.3125 -61.390625 C 33.613281 -57.304688 31.765625 -51.898438 31.765625 -45.171875 L 31.765625 0 L 11.25 0 L 11.25 -59.90625 C 11.25 -68.726562 10.804688 -76.613281 9.921875 -83.5625 L 29.28125 -83.5625 L 30.9375 -68.828125 C 33.039062 -74.234375 36.351562 -78.367188 40.875 -81.234375 C 45.394531 -84.109375 50.523438 -85.546875 56.265625 -85.546875 Z M 56.265625 -85.546875 "/></g></g></g><g fill="#b1a1ed" fill-opacity="1"><g transform="translate(165.140456, 129.81523)"><g><path d="M 11.25 0 L 11.25 -83.5625 L 31.765625 -83.5625 L 31.765625 0 Z M 9.921875 -121.453125 L 32.921875 -121.453125 L 32.921875 -101.09375 L 9.921875 -101.09375 Z M 9.921875 -121.453125 "/></g></g></g><g fill="#b1a1ed" fill-opacity="1"><g transform="translate(208.327542, 129.81523)"><g><path d="M 41.859375 1.328125 C 26.742188 1.328125 14.722656 -2.203125 5.796875 -9.265625 L 11.578125 -23.828125 C 20.515625 -17.210938 30.71875 -13.90625 42.1875 -13.90625 C 47.15625 -13.90625 50.988281 -14.726562 53.6875 -16.375 C 56.394531 -18.03125 57.75 -20.347656 57.75 -23.328125 C 57.75 -25.867188 56.8125 -27.882812 54.9375 -29.375 C 53.0625 -30.863281 49.863281 -32.160156 45.34375 -33.265625 L 31.4375 -36.40625 C 16.21875 -39.707031 8.609375 -47.484375 8.609375 -59.734375 C 8.609375 -64.804688 10.039062 -69.300781 12.90625 -73.21875 C 15.769531 -77.132812 19.796875 -80.195312 24.984375 -82.40625 C 30.171875 -84.613281 36.179688 -85.71875 43.015625 -85.71875 C 48.972656 -85.71875 54.707031 -84.804688 60.21875 -82.984375 C 65.738281 -81.160156 70.597656 -78.539062 74.796875 -75.125 L 68.671875 -61.0625 C 60.285156 -67.238281 51.679688 -70.328125 42.859375 -70.328125 C 38.109375 -70.328125 34.410156 -69.441406 31.765625 -67.671875 C 29.117188 -65.910156 27.796875 -63.484375 27.796875 -60.390625 C 27.796875 -57.960938 28.59375 -56.03125 30.1875 -54.59375 C 31.789062 -53.164062 34.523438 -51.957031 38.390625 -50.96875 L 52.625 -47.828125 C 60.894531 -45.941406 66.929688 -43.039062 70.734375 -39.125 C 74.546875 -35.21875 76.453125 -30.117188 76.453125 -23.828125 C 76.453125 -16.109375 73.359375 -9.984375 67.171875 -5.453125 C 60.992188 -0.929688 52.554688 1.328125 41.859375 1.328125 Z M 41.859375 1.328125 "/></g></g></g></g></g><g transform="matrix(1, 0, 0, 1, 22, 90)"><g clip-path="url(#4eec731ca7)"><g fill="#602e9e" fill-opacity="1"><g transform="translate(0.503138, 260.778464)"><g><path d="M 1.601562 0 L 1.601562 -207.390625 L 161.9375 -207.390625 L 161.9375 -146.847656 L 44.148438 -146.847656 L 44.148438 -168.238281 L 65.539062 -168.238281 L 65.539062 -103.449219 L 44.148438 -103.449219 L 44.148438 -124.839844 L 156.710938 -124.839844 L 156.710938 -64.035156 L 44.148438 -64.035156 L 44.148438 -85.425781 L 65.539062 -85.425781 L 65.539062 -17.765625 L 44.148438 -17.765625 L 44.148438 -39.152344 L 161.9375 -39.152344 L 161.9375 21.390625 L 1.601562 21.390625 Z M 44.378906 0 L 22.988281 0 L 22.988281 -21.390625 L 140.546875 -21.390625 L 140.546875 0 L 119.15625 0 L 119.15625 -17.765625 L 140.546875 -17.765625 L 140.546875 3.625 L 22.761719 3.625 L 22.761719 -106.816406 L 135.320312 -106.816406 L 135.320312 -85.425781 L 113.933594 -85.425781 L 113.933594 -103.449219 L 135.320312 -103.449219 L 135.320312 -82.0625 L 22.761719 -82.0625 L 22.761719 -189.628906 L 140.546875 -189.628906 L 140.546875 -168.238281 L 119.15625 -168.238281 L 119.15625 -186.003906 L 140.546875 -186.003906 L 140.546875 -164.613281 L 22.988281 -164.613281 L 22.988281 -186.003906 L 44.378906 -186.003906 Z M 44.378906 0 "/></g></g></g><g clip-path="url(#59effb36df)"><g fill="#602e9e" fill-opacity="1"><g transform="translate(154.111322, 260.778464)"><g><path d="M 22.988281 -207.390625 L 85.425781 -207.390625 C 121.066406 -207.390625 149.113281 -197.277344 169.566406 -177.042969 C 190.082031 -156.746094 200.339844 -128.820312 200.339844 -93.261719 C 200.339844 -57.550781 190.09375 -29.507812 169.605469 -9.128906 C 149.152344 11.214844 121.089844 21.390625 85.425781 21.390625 L 1.601562 21.390625 L 1.601562 -207.390625 Z M 22.988281 -164.613281 L 22.988281 -186.003906 L 44.378906 -186.003906 L 44.378906 0 L 22.988281 0 L 22.988281 -21.390625 L 85.425781 -21.390625 C 109.324219 -21.390625 127.328125 -27.414062 139.4375 -39.460938 C 151.519531 -51.476562 157.558594 -69.410156 157.558594 -93.261719 C 157.558594 -116.917969 151.535156 -134.707031 139.480469 -146.632812 C 127.363281 -158.621094 109.34375 -164.613281 85.425781 -164.613281 Z M 84.117188 -39.675781 C 102.097656 -39.675781 115.039062 -43.765625 122.9375 -51.949219 C 131.042969 -60.347656 135.09375 -74.117188 135.09375 -93.261719 C 135.09375 -112.292969 131.078125 -125.9375 123.054688 -134.195312 C 115.191406 -142.28125 102.214844 -146.328125 84.117188 -146.328125 L 44.410156 -146.328125 L 44.410156 -167.714844 L 65.800781 -167.714844 L 65.800781 -18.285156 L 44.410156 -18.285156 L 44.410156 -39.675781 Z M 84.117188 3.101562 L 23.023438 3.101562 L 23.023438 -189.105469 L 84.117188 -189.105469 C 114.265625 -189.105469 137.46875 -180.738281 153.730469 -164.011719 C 169.824219 -147.449219 177.871094 -123.867188 177.871094 -93.261719 C 177.871094 -62.597656 169.820312 -38.925781 153.714844 -22.242188 C 137.40625 -5.34375 114.207031 3.101562 84.117188 3.101562 Z M 84.117188 3.101562 "/></g></g></g></g><g fill="#b1a1ed" fill-opacity="1"><g transform="translate(0.503138, 260.778464)"><g><path d="M 22.984375 0 L 22.984375 -186 L 140.546875 -186 L 140.546875 -168.234375 L 44.15625 -168.234375 L 44.15625 -103.453125 L 135.3125 -103.453125 L 135.3125 -85.421875 L 44.15625 -85.421875 L 44.15625 -17.765625 L 140.546875 -17.765625 L 140.546875 0 Z M 22.984375 0 "/></g></g></g><g fill="#b1a1ed" fill-opacity="1"><g transform="translate(154.111322, 260.778464)"><g><path d="M 22.984375 -186 L 85.421875 -186 C 115.203125 -186 138.234375 -177.941406 154.515625 -161.828125 C 170.804688 -145.722656 178.953125 -122.867188 178.953125 -93.265625 C 178.953125 -63.484375 170.804688 -40.492188 154.515625 -24.296875 C 138.234375 -8.097656 115.203125 0 85.421875 0 L 22.984375 0 Z M 84.125 -18.28125 C 108.15625 -18.28125 126.222656 -24.550781 138.328125 -37.09375 C 150.429688 -49.632812 156.484375 -68.359375 156.484375 -93.265625 C 156.484375 -142.898438 132.363281 -167.71875 84.125 -167.71875 L 44.40625 -167.71875 L 44.40625 -18.28125 Z M 84.125 -18.28125 "/></g></g></g></g></g></svg>